<svg xmlns="http://www.w3.org/2000/svg" xmlns:xlink="http://www.w3.org/1999/xlink" width="300" zoomAndPan="magnify" viewBox="0 0 224.87999 225" height="300" preserveAspectRatio="xMidYMid meet" version="1.0"><defs><clipPath id="2a14e63f4c"><path d="M 0 8.9375 L 224.761719 8.9375 L 224.761719 216.0625 L 0 216.0625 Z M 0 8.9375 " clip-rule="nonzero"/></clipPath><clipPath id="c24d3221bb"><path d="M 188.9375 96.457031 C 182.089844 96.457031 176.539062 90.90625 176.539062 84.0625 C 176.539062 77.214844 182.089844 71.664062 188.9375 71.664062 C 195.785156 71.664062 201.335938 77.214844 201.335938 84.0625 C 201.335938 90.90625 195.785156 96.457031 188.9375 96.457031 M 149.394531 96.457031 C 142.546875 96.457031 136.996094 90.90625 136.996094 84.0625 C 136.996094 77.214844 142.546875 71.664062 149.394531 71.664062 C 156.242188 71.664062 161.792969 77.214844 161.792969 84.0625 C 161.792969 90.90625 156.242188 96.457031 149.394531 96.457031 M 109.851562 96.457031 C 103.007812 96.457031 97.457031 90.90625 97.457031 84.0625 C 97.457031 77.214844 103.007812 71.664062 109.851562 71.664062 C 116.699219 71.664062 122.25 77.214844 122.25 84.0625 C 122.25 90.90625 116.699219 96.457031 109.851562 96.457031 M 202.261719 30.351562 C 175.855469 4.40625 133.375 1.679688 103.953125 24.136719 C 74.398438 46.699219 66.664062 85.640625 81.625 116.765625 C 84.089844 121.886719 82.992188 128.007812 78.632812 131.640625 L 78.179688 132.019531 C 74.503906 135.085938 69.269531 135.863281 65.066406 133.566406 C 48.558594 124.519531 27.1875 126.679688 12.746094 141.109375 C -1.832031 155.667969 -4.214844 179.167969 7.203125 196.316406 C 21.992188 218.53125 52.257812 222.449219 72.132812 205.796875 C 86.34375 193.894531 91.125 174.910156 85.648438 158.320312 C 84.140625 153.75 85.878906 148.714844 89.574219 145.640625 L 89.988281 145.292969 C 94.359375 141.648438 100.582031 141.6875 105.175781 145.050781 C 133.605469 165.8125 173.589844 164.398438 200.503906 139.667969 C 232.113281 110.617188 233.261719 60.804688 202.253906 30.339844 " clip-rule="nonzero"/></clipPath><clipPath id="41826fc452"><path d="M 0 0.9375 L 224.761719 0.9375 L 224.761719 208.0625 L 0 208.0625 Z M 0 0.9375 " clip-rule="nonzero"/></clipPath><clipPath id="953d5623e2"><path d="M 188.9375 88.457031 C 182.089844 88.457031 176.539062 82.90625 176.539062 76.0625 C 176.539062 69.214844 182.089844 63.664062 188.9375 63.664062 C 195.785156 63.664062 201.335938 69.214844 201.335938 76.0625 C 201.335938 82.90625 195.785156 88.457031 188.9375 88.457031 M 149.394531 88.457031 C 142.546875 88.457031 136.996094 82.90625 136.996094 76.0625 C 136.996094 69.214844 142.546875 63.664062 149.394531 63.664062 C 156.242188 63.664062 161.792969 69.214844 161.792969 76.0625 C 161.792969 82.90625 156.242188 88.457031 149.394531 88.457031 M 109.851562 88.457031 C 103.007812 88.457031 97.457031 82.90625 97.457031 76.0625 C 97.457031 69.214844 103.007812 63.664062 109.851562 63.664062 C 116.699219 63.664062 122.25 69.214844 122.25 76.0625 C 122.25 82.90625 116.699219 88.457031 109.851562 88.457031 M 202.261719 22.351562 C 175.855469 -3.59375 133.375 -6.320312 103.953125 16.136719 C 74.398438 38.699219 66.664062 77.640625 81.625 108.765625 C 84.089844 113.886719 82.992188 120.007812 78.632812 123.640625 L 78.179688 124.019531 C 74.503906 127.085938 69.269531 127.863281 65.066406 125.566406 C 48.558594 116.519531 27.1875 118.679688 12.746094 133.109375 C -1.832031 147.667969 -4.214844 171.167969 7.203125 188.316406 C 21.992188 210.53125 52.257812 214.449219 72.132812 197.796875 C 86.34375 185.894531 91.125 166.910156 85.648438 150.320312 C 84.140625 145.75 85.878906 140.714844 89.574219 137.640625 L 89.988281 137.292969 C 94.359375 133.648438 100.582031 133.6875 105.175781 137.050781 C 133.605469 157.8125 173.589844 156.398438 200.503906 131.667969 C 232.113281 102.617188 233.261719 52.804688 202.253906 22.339844 " clip-rule="nonzero"/></clipPath><clipPath id="b4372850c2"><rect x="0" width="225" y="0" height="209"/></clipPath></defs><g clip-path="url(#2a14e63f4c)"><g clip-path="url(#c24d3221bb)"><g transform="matrix(1, 0, 0, 1, 0, 8)"><g clip-path="url(#b4372850c2)"><g clip-path="url(#41826fc452)"><g clip-path="url(#953d5623e2)"><path fill="#3888ff" d="M 0 0.9375 L 224.925781 0.9375 L 224.925781 208.0625 L 0 208.0625 Z M 0 0.9375 " fill-opacity="1" fill-rule="nonzero"/></g></g></g></g></g></g></svg>