<svg fill="none" height="1000" viewBox="0 0 1000 1000" width="1000" xmlns="http://www.w3.org/2000/svg" xmlns:xlink="http://www.w3.org/1999/xlink"><radialGradient id="a" cx="0" cy="0" gradientTransform="matrix(470.99838229 -1197.99784285 2828.93743523 1112.20981203 413.5 1198)" gradientUnits="userSpaceOnUse" r="1"><stop offset=".142635" stop-color="#fed000"/><stop offset=".387679" stop-color="#fe000f"/><stop offset=".576911" stop-color="#d0047e"/><stop offset=".781677" stop-color="#b503ef"/></radialGradient><radialGradient id="b" cx="0" cy="0" gradientTransform="matrix(191.00018928 338.99977951 -730.31615757 411.47674059 148 -32.5)" gradientUnits="userSpaceOnUse" r="1"><stop offset="0" stop-color="#7536f9"/><stop offset=".998549" stop-color="#7536f9" stop-opacity="0"/></radialGradient><clipPath id="c"><path d="m0 0h1000v1000h-1000z"/></clipPath><g clip-path="url(#c)" clip-rule="evenodd" fill-rule="evenodd"><path d="m996.54 292.94c2.53 53.32 3.14 70.33 3.4 206.1l-.01.01c.26 135.75-.29 152.8-2.62 206.16-2.31 53.19-10.69 89.56-23 121.36-12.72 32.92-29.76 60.85-57.48 88.68-27.72 27.84-55.58 44.97-88.45 57.83-31.79 12.41-68.09 20.93-121.29 23.47-53.33 2.53-70.36 3.13-206.16 3.39-135.74.26-152.77-.26-206.1-2.61-53.22-2.33-89.59-10.7-121.39-23-32.92-12.73-60.85-29.76-88.68-57.49-27.84-27.73-45-55.58-57.83-88.45-12.44-31.77-20.93001-68.09-23.47001-121.28-2.540005-53.35-3.140005-70.39-3.4000049-206.15-.2600001-135.78.2699999-152.79 2.6200049-206.13 2.34-53.23 10.69001-89.59 23.00001-121.42 12.72-32.9 29.76-60.81 57.51-88.66 27.72-27.83 55.58-45.01 88.45-57.82 31.75-12.44 68.09-20.95999 121.29-23.46999 53.33-2.560001 70.35-3.140001 206.11-3.4000007 135.79-.2600003 152.81.2599997 206.14 2.6300007 53.22 2.3 89.57 10.68999 121.39 22.99999 32.92 12.69 60.85 29.76 88.68 57.48 27.83 27.75 44.97 55.58 57.82 88.45 12.42 31.78 20.94 68.09 23.47 121.32zm-106.23 501.18c6.8-17.66 14.89-44.14 17.01-92.89h.01c2.31-52.71 2.8-68.52 2.54-202.03-.24-133.48-.81-149.29-3.32-202.02-2.3-48.71-10.49-75.18-17.37-92.76-9.12-23.38-19.99-39.97-37.52-57.45s-34.2-28.25-57.58-37.29c-17.61-6.82-44.12-14.89-92.83-17.01-52.74-2.32-68.56-2.79-202.06-2.53-133.47.26-149.27.79-202 3.29-48.73 2.31-75.16 10.49-92.79 17.38-23.33 9.12-39.95 19.96-57.43 37.5-17.45 17.55-28.25 34.19-37.29 57.58-6.77 17.62-14.92 44.13-17.01 92.84-2.3 52.74-2.79 68.56-2.53 202.03.24 133.51.81 149.32 3.29 202.02 2.28 48.75 10.53 75.19 17.38 92.83 9.12 23.31 19.99 39.93 37.5 57.41 17.55 17.41 34.22 28.25 57.58 37.29 17.64 6.79 44.11 14.89 92.86 17.01 52.74 2.29 68.54 2.79 202.01 2.53 133.52-.24 149.32-.81 202.05-3.29 48.7-2.31 75.17-10.51 92.76-17.38 23.35-9.12 39.97-20.02 57.43-37.5 17.46-17.55 28.27-34.22 37.31-57.56zm-124.07-621.49c-33.13.06-59.94 26.99-59.87 60.1.06 33.11 26.99 59.92 60.1 59.86 33.13-.06 59.94-26.97 59.89-60.09-.07-33.11-26.99-59.94-60.12-59.88zm-266.75 70.63c-141.77.28-256.5 115.46-256.22 257.23.27 141.8 115.44 256.5 257.21 256.22 141.78-.28 256.54-115.41 256.27-257.21-.28-141.75-115.46-256.51-257.26-256.24zm.81 423.39c-92.02.18-166.8-74.29-166.97-166.34-.16-92.03 74.33-166.8 166.34-166.96 92.03-.18 166.81 74.28 166.99 166.33s-74.31 166.8-166.36 166.98z" fill="url(#a)"/><path d="m996.54 292.94c2.53 53.32 3.14 70.33 3.4 206.1l-.01.01c.26 135.75-.29 152.8-2.62 206.16-2.31 53.19-10.69 89.56-23 121.36-12.72 32.92-29.76 60.85-57.48 88.68-27.72 27.84-55.58 44.97-88.45 57.83-31.79 12.41-68.09 20.93-121.29 23.47-53.33 2.53-70.36 3.13-206.16 3.39-135.74.26-152.77-.26-206.1-2.61-53.22-2.33-89.59-10.7-121.39-23-32.92-12.73-60.85-29.76-88.68-57.49-27.84-27.73-45-55.58-57.83-88.45-12.44-31.77-20.93001-68.09-23.47001-121.28-2.540005-53.35-3.140005-70.39-3.4000049-206.15-.2600001-135.78.2699999-152.79 2.6200049-206.13 2.34-53.23 10.69001-89.59 23.00001-121.42 12.72-32.9 29.76-60.81 57.51-88.66 27.72-27.83 55.58-45.01 88.45-57.82 31.75-12.44 68.09-20.95999 121.29-23.46999 53.33-2.560001 70.35-3.140001 206.11-3.4000007 135.79-.2600003 152.81.2599997 206.14 2.6300007 53.22 2.3 89.57 10.68999 121.39 22.99999 32.92 12.69 60.85 29.76 88.68 57.48 27.83 27.75 44.97 55.58 57.82 88.45 12.42 31.78 20.94 68.09 23.47 121.32zm-106.23 501.18c6.8-17.66 14.89-44.14 17.01-92.89h.01c2.31-52.71 2.8-68.52 2.54-202.03-.24-133.48-.81-149.29-3.32-202.02-2.3-48.71-10.49-75.18-17.37-92.76-9.12-23.38-19.99-39.97-37.52-57.45s-34.2-28.25-57.58-37.29c-17.61-6.82-44.12-14.89-92.83-17.01-52.74-2.32-68.56-2.79-202.06-2.53-133.47.26-149.27.79-202 3.29-48.73 2.31-75.16 10.49-92.79 17.38-23.33 9.12-39.95 19.96-57.43 37.5-17.45 17.55-28.25 34.19-37.29 57.58-6.77 17.62-14.92 44.13-17.01 92.84-2.3 52.74-2.79 68.56-2.53 202.03.24 133.51.81 149.32 3.29 202.02 2.28 48.75 10.53 75.19 17.38 92.83 9.12 23.31 19.99 39.93 37.5 57.41 17.55 17.41 34.22 28.25 57.58 37.29 17.64 6.79 44.11 14.89 92.86 17.01 52.74 2.29 68.54 2.79 202.01 2.53 133.52-.24 149.32-.81 202.05-3.29 48.7-2.31 75.17-10.51 92.76-17.38 23.35-9.12 39.97-20.02 57.43-37.5 17.46-17.55 28.27-34.22 37.31-57.56zm-124.07-621.49c-33.13.06-59.94 26.99-59.87 60.1.06 33.11 26.99 59.92 60.1 59.86 33.13-.06 59.94-26.97 59.89-60.09-.07-33.11-26.99-59.94-60.12-59.88zm-266.75 70.63c-141.77.28-256.5 115.46-256.22 257.23.27 141.8 115.44 256.5 257.21 256.22 141.78-.28 256.54-115.41 256.27-257.21-.28-141.75-115.46-256.51-257.26-256.24zm.81 423.39c-92.02.18-166.8-74.29-166.97-166.34-.16-92.03 74.33-166.8 166.34-166.96 92.03-.18 166.81 74.28 166.99 166.33s-74.31 166.8-166.36 166.98z" fill="url(#b)"/></g></svg>
